<?xml version="1.0" encoding="utf-8"?>
<!-- Generator: Adobe Illustrator 25.0.0, SVG Export Plug-In . SVG Version: 6.00 Build 0)  -->
<svg version="1.1" id="Layer_1" xmlns="http://www.w3.org/2000/svg" xmlns:xlink="http://www.w3.org/1999/xlink" x="0px" y="0px"
	 viewBox="0 0 2000 2000" style="enable-background:new 0 0 2000 2000;" xml:space="preserve">
<style type="text/css">
	.st0{fill:#F2F2F2;}
</style>
<g>
	<path class="st0" d="M145.3,671.8v-21.11L623.84,572l376.18-473.43v1802.86H256.61l79.33-690.95v-30.07h14.07l-16.63-39.03
		l16.63-26.87v-39.67l10.24-287.89l2.56-23.03L344.9,728.1l15.35-21.75l-17.91-24.31L145.3,671.8z M605.93,1178.49h7.68v-127.65
		h-7.68V1178.49z M572.66,1178.49h22.06v-127.65h-22.06V1178.49z M539.39,1178.49h22.72v-127.65h-22.72V1178.49z M507.4,1178.49
		h21.11l3.84-127.65H507.4V1178.49z M472.85,1101.72l11.52,41.25l-11.52,35.52h23.03v-127.65l-23.03-0.31V1101.72z M465.18,764.9
		l5.12,270.29H613.6V671.8H477.97l-12.8,38.39l15.35,25.59L465.18,764.9z"/>
	<path class="st0" d="M1854.99,671.8v-21.11L1376.45,572L1000.26,98.57v1802.86h743.41l-79.33-690.95v-30.07h-14.07l16.63-39.03
		l-16.63-26.87v-39.67l-10.24-287.89l-2.56-23.03l17.91-35.83l-15.35-21.75l17.91-24.31L1854.99,671.8z M1394.36,1178.49h-7.68
		v-127.65h7.68V1178.49z M1427.63,1178.49h-22.06v-127.65h22.06V1178.49z M1460.9,1178.49h-22.72v-127.65h22.72V1178.49z
		 M1492.88,1178.49h-21.11l-3.84-127.65h24.95V1178.49z M1527.43,1101.72l-11.52,41.25l11.52,35.52h-23.03v-127.65l23.03-0.31
		V1101.72z M1535.11,764.9l-5.12,270.29h-143.31V671.8h135.63l12.8,38.39l-15.35,25.59L1535.11,764.9z"/>
</g>
</svg>
