<svg id="Layer_1" data-name="Layer 1" xmlns="http://www.w3.org/2000/svg" viewBox="0 0 2000 2000"><defs><style>.cls-1{fill:#231f20;}.cls-2{fill:#414042;}</style></defs><path class="cls-1" d="M539.5664,960.2091c23.3192-15.797,12.8283-183.7923-15.7555-433.2339,294.9469,78.0988,484.6091,228.7222,503.0537,497.2873l-92.2827,174.6913Z"/><path class="cls-2" d="M104.9276,866.2642H226.4708s27.01,76.8642,108.0383,101.3208c57.8846,278.0985,196.974,493.9009,614.4686,496.1231,106.8593,43.5865,118.3935,69.3016,124.92,83.8515-.2645-23.6362-13.94-46.3169-42.5309-67.9352,50.9764,4.8,94.2257,14.1645,118.1671,34.938.43-25.7331-15.3168-45.107-52.8939-55.9012,36.9607-6.089,76.1771,3.0423,117.0416,23.2923-17.6818-52.2523-82.7783-73.26-190.1927-66.3825,275.7233-86.181,425.4012-271.3536,621.2211,11.6461,313.3744-201.3942,336.031-400.9712,48.392-598.6087-115.56,210.6008-247.8336,326.51-400.6425,326.09,307.1428-219.51,289.1216-454.68,13.5051-702.2584C1174.2922,762.2259,810.7879,713.3124,913.2,1130.2418l-9.0034-62.8887c-113.4586,51.286-275.6546-70.9126-449.0346-232.9214-81.0289-96.6625-207.0737-97.8271-229.5816-30.28Z"/></svg>