<svg id="Layer_1" data-name="Layer 1" xmlns="http://www.w3.org/2000/svg" xmlns:xlink="http://www.w3.org/1999/xlink" viewBox="0 0 2000 2000"><defs><style>.cls-1{fill:url(#linear-gradient);}</style><linearGradient id="linear-gradient" x1="613.5457" y1="589.8385" x2="1273.9616" y2="1733.7124" gradientUnits="userSpaceOnUse"><stop offset="0" stop-color="#fff"/><stop offset="1" stop-color="#27aae1"/></linearGradient></defs><path class="cls-1" d="M181.3092,1121.2612c.44-25.9669-33.0142-43.0733-56.8173-32.6866s-35.3351,39.2316-32.71,65.0693,16.527,49.0924,31.6861,70.18a513.2652,513.2652,0,0,0,218.1678,173.1906c127.11,52.9088,269.2037,52.2889,406.8777,50.8539l91.3974-.9527,153.74-1.6024c96.1309-1.002,193.1947-2.1125,286.7644-24.1773,93.2-21.9777,184.7905-64.8031,280.0781-55.3374,62.76,6.2345,121.2714,34.9249,183.57,44.7516s137.1895-6.6926,164.5213-63.5315c-29.6872,12.1108-60.3,24.4132-92.3627,24.4962s-66.331-15.0037-79.3795-44.2908c-20.9258-46.9672,20.0339-103.5231,2.205-151.751-13.3131-36.0123-56.3918-53.6716-94.6215-50.12s-72.7552,23.3913-105.9,42.7709c-.5339-55.6928-1.2022-112.2961-17.5195-165.5476S1470.2241,898.9316,1419.1493,876.72s-119.1457-8.4489-147.8885,39.2568c-22.48,37.3109-17.44,84.1961-23.6634,127.309s-35.5765,91.5475-79.009,88.2208c-41.985-3.2158-64.5416-54.45-58.4349-96.1125s30.5233-78.1629,43.7006-118.1558c34.3807-104.3448-15.4241-224.7335-102.8764-291.2312s-204.711-84.5224-313.4937-69.1543c-69.2807,9.7875-138.1108,32.9326-192.6446,76.77s-93.2451,110.229-93.5742,180.1969c-.3563,75.7555,42.599,151.0624,22.93,224.2207-14.1781,52.7344-62.9144,94.3346-117.2208,100.0571s-150.8065,31.785-175.6649-16.8359"/></svg>