<svg id="Layer_1" data-name="Layer 1" xmlns="http://www.w3.org/2000/svg" xmlns:xlink="http://www.w3.org/1999/xlink" viewBox="0 0 2000 2000"><defs><style>.cls-1{fill:url(#linear-gradient);}</style><linearGradient id="linear-gradient" x1="64.1766" y1="1000" x2="1935.8234" y2="1000" gradientUnits="userSpaceOnUse"><stop offset="0" stop-color="#fff"/><stop offset="1" stop-color="#27aae1"/></linearGradient></defs><path class="cls-1" d="M432.4852,1472.5586c16.5155,35.5363,70.6972,30.2,102.3221,7.06s55.7848-58.2637,92.9922-70.56c48.8382-16.14,101.5687,13.65,136.5961,51.3159s60.54,84.1916,100.0865,117.0819c51.2372,42.6136,124.2913,57.4177,188.0761,38.1128s116.369-72.1345,135.377-136.0084c19.1553-64.3688,13.807-149.0137,73.3822-180.0148,45.31-23.5778,101.89,2.9086,136.5935,40.386s57.0757,85.293,93.3285,121.2738c67.586,67.0789,178.3981,81.2266,265.45,42.6332s149.0345-123.8091,170.0865-216.6759,3.942-191.89-36.5562-278.0717c-59.7295,78.8361-201.6469,68.789-249.6738-17.6757-33.4862-60.2863-21.7184-134.1274-22.4667-203.0854-1.2926-119.112-46.2695-240.007-133.9393-320.65S1264.5,352.5114,1152.5676,393.26,959.4915,554.95,977.0193,672.7725c8.8782,59.68,39.9682,113.4574,58.7337,170.8017s22.944,126.3769-16.17,172.3184-131.4789,39.5806-144.9174-19.24c-6.727-29.444,7.6039-59.4083,8.8072-89.5871,1.8774-47.0841-32.6465-93.1114-78.3741-104.4883S707.3045,815.6836,686.9,858.1582c-40.8572,85.049,36.7821,210.2729-35.4847,270.937-36.527,30.6625-92.36,22.1856-134.9825.7916s-79.7858-53.7458-124.8928-69.23-104.5811-7.1548-126.1332,35.3883c-29.7414,58.7083,32.2262,131.9331,7.6889,193-14.6775,36.5284-57.2533,55.4632-96.6106,54.5951s-76.4542-17.4188-112.3084-33.6739L383.1722,1473.388"/></svg>