<svg id="Layer_1" data-name="Layer 1" xmlns="http://www.w3.org/2000/svg" xmlns:xlink="http://www.w3.org/1999/xlink" viewBox="0 0 2000 2000"><defs><style>.cls-1{fill:url(#linear-gradient);}.cls-2{fill:url(#linear-gradient-2);}.cls-3{fill:url(#linear-gradient-3);}.cls-4{fill:url(#linear-gradient-4);}.cls-5{fill:url(#linear-gradient-5);}.cls-6{fill:url(#linear-gradient-6);}.cls-7{fill:url(#linear-gradient-7);}.cls-8{fill:url(#linear-gradient-8);}.cls-9{fill:url(#linear-gradient-9);}.cls-10{fill:url(#linear-gradient-10);}.cls-11{fill:url(#linear-gradient-11);}.cls-12{fill:url(#linear-gradient-12);}.cls-13{fill:url(#linear-gradient-13);}.cls-14{fill:url(#linear-gradient-14);}.cls-15{fill:url(#linear-gradient-15);}.cls-16{fill:url(#linear-gradient-16);}.cls-17{fill:url(#linear-gradient-17);}.cls-18{fill:url(#linear-gradient-18);}.cls-19{fill:url(#linear-gradient-19);}.cls-20{fill:url(#linear-gradient-20);}.cls-21{fill:url(#linear-gradient-21);}.cls-22{fill:url(#linear-gradient-22);}.cls-23{fill:url(#linear-gradient-23);}.cls-24{fill:url(#linear-gradient-24);}.cls-25{fill:url(#linear-gradient-25);}.cls-26{fill:url(#linear-gradient-26);}</style><linearGradient id="linear-gradient" x1="515.4719" y1="1000.3003" x2="1483.673" y2="1000.3003" gradientUnits="userSpaceOnUse"><stop offset="0" stop-color="#f15a29"/><stop offset="1" stop-color="#fbb040"/></linearGradient><linearGradient id="linear-gradient-2" x1="689.9628" y1="1260.0937" x2="1309.1822" y2="740.5069" gradientUnits="userSpaceOnUse"><stop offset="0" stop-color="#f7941d"/><stop offset="1" stop-color="#f9ed32"/></linearGradient><linearGradient id="linear-gradient-3" x1="324.4964" y1="558.5018" x2="631.6478" y2="558.5018" gradientUnits="userSpaceOnUse"><stop offset="0" stop-color="#f15a29"/><stop offset="1" stop-color="#f9ed32"/></linearGradient><linearGradient id="linear-gradient-4" x1="631.6478" y1="536.1412" x2="324.4964" y2="536.1412" xlink:href="#linear-gradient-3"/><linearGradient id="linear-gradient-5" x1="837.6392" y1="297.5299" x2="1024.6294" y2="297.5299" xlink:href="#linear-gradient-3"/><linearGradient id="linear-gradient-6" x1="850.9915" y1="214.3977" x2="1063.864" y2="393.0189" xlink:href="#linear-gradient-3"/><linearGradient id="linear-gradient-7" x1="1216.4077" y1="473.1696" x2="1653.4456" y2="473.1696" xlink:href="#linear-gradient-3"/><linearGradient id="linear-gradient-8" x1="1676.752" y1="357.9578" x2="1263.4513" y2="596.5771" xlink:href="#linear-gradient-3"/><linearGradient id="linear-gradient-9" x1="1458.1302" y1="923.6453" x2="1944.5455" y2="923.6453" xlink:href="#linear-gradient-3"/><linearGradient id="linear-gradient-10" x1="1723.146" y1="893.8426" x2="1675.4735" y2="1024.8217" xlink:href="#linear-gradient-3"/><linearGradient id="linear-gradient-11" x1="1374.7" y1="1429.1515" x2="1689.8252" y2="1429.1515" xlink:href="#linear-gradient-3"/><linearGradient id="linear-gradient-12" x1="1496.1382" y1="1496.8518" x2="1583.9184" y2="1423.1955" xlink:href="#linear-gradient-3"/><linearGradient id="linear-gradient-13" x1="994.3066" y1="1700.9661" x2="1174.59" y2="1700.9661" xlink:href="#linear-gradient-3"/><linearGradient id="linear-gradient-14" x1="958.6933" y1="1641.9484" x2="1148.1684" y2="1751.3419" xlink:href="#linear-gradient-3"/><linearGradient id="linear-gradient-15" x1="361.7205" y1="1538.4781" x2="792.8435" y2="1538.4781" xlink:href="#linear-gradient-3"/><linearGradient id="linear-gradient-16" x1="514.4413" y1="1445.7459" x2="577.65" y2="1619.4105" xlink:href="#linear-gradient-3"/><linearGradient id="linear-gradient-17" x1="55.4545" y1="1093.399" x2="544.7464" y2="1093.399" xlink:href="#linear-gradient-3"/><linearGradient id="linear-gradient-18" x1="327.0172" y1="987.732" x2="275.8485" y2="1128.3168" xlink:href="#linear-gradient-3"/><linearGradient id="linear-gradient-19" x1="584.0133" y1="411.1748" x2="762.5171" y2="411.1748" xlink:href="#linear-gradient-2"/><linearGradient id="linear-gradient-20" x1="1052.2303" y1="345.7874" x2="1262.7618" y2="345.7874" xlink:href="#linear-gradient-2"/><linearGradient id="linear-gradient-21" x1="1428.4909" y1="675.5745" x2="1750.8888" y2="675.5745" xlink:href="#linear-gradient-2"/><linearGradient id="linear-gradient-22" x1="1507.8454" y1="1160.1416" x2="1799.2316" y2="1160.1416" xlink:href="#linear-gradient-2"/><linearGradient id="linear-gradient-23" x1="1233.5484" y1="1591.4041" x2="1411.8815" y2="1591.4041" xlink:href="#linear-gradient-2"/><linearGradient id="linear-gradient-24" x1="732.1071" y1="1653.714" x2="943.5163" y2="1653.714" xlink:href="#linear-gradient-2"/><linearGradient id="linear-gradient-25" x1="246.081" y1="1321.8577" x2="568.8936" y2="1321.8577" xlink:href="#linear-gradient-2"/><linearGradient id="linear-gradient-26" x1="201.4438" y1="836.6182" x2="491.989" y2="836.6182" xlink:href="#linear-gradient-2"/></defs><circle class="cls-1" cx="999.5725" cy="1000.3003" r="484.1006"/><circle class="cls-2" cx="999.5725" cy="1000.3003" r="404.1573"/><path class="cls-3" d="M631.6478,685.6813C423.2,587.6512,515.4719,347.182,324.4964,338.5482,523.8215,475.0911,293.5851,596.1429,569.19,778.4554Z"/><path class="cls-4" d="M595.4151,733.7342l36.2327-48.0529C401.0288,565.48,539.1706,365.942,324.4964,338.5482,525.527,398.3457,366.92,621.76,595.4151,733.7342Z"/><path class="cls-5" d="M959.08,517.8959C879.7462,301.64,1114.4179,195.4852,984.666,55.0906c45.771,237.233-203.0711,161.4705-135.2257,484.8786Z"/><path class="cls-6" d="M899.53,526.6l59.5494-8.7038c-79.5155-247.61,159.0045-292.4087,25.5863-462.8053C1085.6014,238.9413,815.7415,286.3337,899.53,526.6Z"/><path class="cls-7" d="M1309.9,628.7492c95.6044-209.5718,337.1283-120.0965,343.5452-311.1593-134.2206,200.8963-257.9362-27.92-437.0379,249.7822Z"/><path class="cls-8" d="M1261.43,593.0766l48.47,35.6726c117.5165-231.9985,318.6446-96.1816,343.5452-311.1593C1595.9851,519.3009,1370.7449,363.297,1261.43,593.0766Z"/><path class="cls-9" d="M1481.4744,954.2118c215.3209-81.8379,324.1918,151.5861,463.0711,20.2136C1707.86,1022.9465,1780.7292,773.2419,1458.13,844.836Z"/><path class="cls-10" d="M1472.08,894.7674l9.3944,59.4445c246.67-82.3838,294.2342,155.6,463.071,20.2135C1761.8786,1077.4876,1711.3576,808.196,1472.08,894.7674Z"/><path class="cls-11" d="M1374.7,1306.2954c210.6671,93.1658,124.0008,335.7118,315.1252,339.9109-202.44-131.88,24.9245-258.2427-254.8373-434.11Z"/><path class="cls-12" d="M1409.8077,1257.4145,1374.7,1306.2954c233.3467,114.8162,99.8731,317.5069,315.1252,339.9109C1487.461,1591.0907,1640.84,1364.0551,1409.8077,1257.4145Z"/><path class="cls-13" d="M1051.25,1481.6349c84.3312,214.3567-147.8135,325.9291-14.8382,463.2745-51.2646-236.1068,199.2689-166.14,123.9358-487.8865Z"/><path class="cls-14" d="M1110.5818,1471.5514,1051.25,1481.635c85.2408,245.6978-152.1752,296.02-14.8382,463.2744C931.237,1763.4508,1199.9243,1709.808,1110.5818,1471.5514Z"/><path class="cls-15" d="M697.9514,1378.9537c-90.7147,211.7342-334.25,127.8885-336.2309,319.0487,129.5218-203.9572,258.5146,21.9259,431.123-259.858Z"/><path class="cls-16" d="M747.2364,1413.4918l-49.285-34.5381c-112.1,234.6634-316.3265,103.5511-336.2309,319.0487C414.4839,1495.0122,643.2842,1645.7465,747.2364,1413.4918Z"/><path class="cls-17" d="M518.87,1057.5607C305.5064,1144.374,191.2474,913.54,55.4545,1048.1c235.496-54.0013,168.4414,197.3273,489.2919,118.2654Z"/><path class="cls-18" d="M529.6414,1116.7711l-10.7715-59.21c-244.692,88.0865-297.7663-148.73-463.4154-9.4607C235.68,940.826,292.4376,1208.8726,529.6414,1116.7711Z"/><path class="cls-19" d="M721.9443,558.4062,656.8219,398.3778l34.4514,173.889c-95.54.4977-144.2335-87.2345-73.9688-322.186C800.1757,412.0421,779.1769,492.47,721.9443,558.4062Z"/><path class="cls-20" d="M1116.4579,491.6889,1183.7955,332.58l-98.8091,147.1768c-67.8123-67.3028-40.0688-163.73,175.919-279.8709C1275.34,443.74,1203.56,485.66,1116.4579,491.6889Z"/><path class="cls-21" d="M1442.2636,723.9448l160.2151-64.6616L1428.4913,693.234c-.2228-95.5412,87.6491-143.9818,322.3975-73.0413C1588.402,802.597,1508.035,781.3669,1442.2636,723.9448Z"/><path class="cls-22" d="M1507.8454,1118.6487l158.9145,67.7952-146.8919-99.2322c67.4977-67.6183,163.845-39.5975,279.3636,176.7236C1555.3366,1277.6682,1513.6239,1205.7681,1507.8454,1118.6487Z"/><path class="cls-23" d="M1274.653,1443.7848l64.2,160.4005-33.45-174.0844c95.5416.0521,143.7291,88.0631,72.1134,322.6064C1195.5806,1589.6962,1217.0418,1509.3907,1274.653,1443.7848Z"/><path class="cls-24" d="M879.762,1508.2306,811.51,1666.9494l99.6545-146.6058c67.4239,67.692,39.126,163.9582-177.5267,278.8539C720.6065,1555.264,792.6263,1513.7584,879.762,1508.2306Z"/><path class="cls-25" d="M555.2983,1274.1035l-160.5846,63.7386,174.18-32.9491c-.3271,95.541-88.4763,143.4751-322.8126,71.1848C409.6149,1194.6116,489.8584,1216.3038,555.2983,1274.1035Z"/><path class="cls-26" d="M491.989,879.0287,333.4673,810.32,479.7857,910.396C411.9,977.6248,315.7156,949.05,201.4438,732.0676,445.4137,719.7386,486.712,791.8775,491.989,879.0287Z"/></svg>