<svg id="Layer_1" data-name="Layer 1" xmlns="http://www.w3.org/2000/svg" xmlns:xlink="http://www.w3.org/1999/xlink" viewBox="0 0 2000 2000"><defs><style>.cls-1{fill:url(#linear-gradient);}.cls-2{fill:url(#linear-gradient-2);}.cls-3{fill:url(#linear-gradient-3);}.cls-4{fill:url(#linear-gradient-4);}.cls-5{fill:url(#linear-gradient-5);}.cls-6{fill:url(#linear-gradient-6);}.cls-7{fill:url(#linear-gradient-7);}.cls-8{fill:url(#linear-gradient-8);}.cls-9{fill:url(#linear-gradient-9);}.cls-10{fill:url(#linear-gradient-10);}.cls-11{fill:url(#linear-gradient-11);}.cls-12{fill:url(#linear-gradient-12);}.cls-13{fill:url(#linear-gradient-13);}.cls-14{fill:url(#linear-gradient-14);}.cls-15{fill:url(#linear-gradient-15);}.cls-16{fill:url(#linear-gradient-16);}.cls-17{fill:url(#linear-gradient-17);}.cls-18{fill:url(#linear-gradient-18);}.cls-19{fill:url(#linear-gradient-19);}.cls-20{fill:url(#linear-gradient-20);}.cls-21{fill:url(#linear-gradient-21);}.cls-22{fill:url(#linear-gradient-22);}.cls-23{fill:url(#linear-gradient-23);}.cls-24{fill:url(#linear-gradient-24);}.cls-25{fill:url(#linear-gradient-25);}.cls-26{fill:url(#linear-gradient-26);}</style><linearGradient id="linear-gradient" x1="302.208" y1="543.9344" x2="619.4939" y2="543.9344" gradientUnits="userSpaceOnUse"><stop offset="0" stop-color="#f15a29"/><stop offset="1" stop-color="#f9ed32"/></linearGradient><linearGradient id="linear-gradient-2" x1="619.4939" y1="520.836" x2="302.208" y2="520.836" xlink:href="#linear-gradient"/><linearGradient id="linear-gradient-3" x1="832.2821" y1="274.3517" x2="1025.4421" y2="274.3517" xlink:href="#linear-gradient"/><linearGradient id="linear-gradient-4" x1="846.0749" y1="188.4764" x2="1065.9712" y2="372.9913" xlink:href="#linear-gradient"/><linearGradient id="linear-gradient-5" x1="1223.5481" y1="455.7866" x2="1675.0062" y2="455.7866" xlink:href="#linear-gradient"/><linearGradient id="linear-gradient-6" x1="1699.0816" y1="336.7734" x2="1272.144" y2="583.266" xlink:href="#linear-gradient"/><linearGradient id="linear-gradient-7" x1="1473.2463" y1="921.1259" x2="1975.7111" y2="921.1259" xlink:href="#linear-gradient"/><linearGradient id="linear-gradient-8" x1="1747.0064" y1="890.3399" x2="1697.7609" y2="1025.6407" xlink:href="#linear-gradient"/><linearGradient id="linear-gradient-9" x1="1387.0633" y1="1443.3115" x2="1712.5862" y2="1443.3115" xlink:href="#linear-gradient"/><linearGradient id="linear-gradient-10" x1="1512.5084" y1="1513.2456" x2="1603.185" y2="1437.1589" xlink:href="#linear-gradient"/><linearGradient id="linear-gradient-11" x1="994.1188" y1="1724.0948" x2="1180.3506" y2="1724.0948" xlink:href="#linear-gradient"/><linearGradient id="linear-gradient-12" x1="957.3304" y1="1663.1298" x2="1153.0573" y2="1776.1327" xlink:href="#linear-gradient"/><linearGradient id="linear-gradient-13" x1="340.6602" y1="1556.2453" x2="786.0083" y2="1556.2453" xlink:href="#linear-gradient"/><linearGradient id="linear-gradient-14" x1="498.4201" y1="1460.4534" x2="563.7144" y2="1639.8482" xlink:href="#linear-gradient"/><linearGradient id="linear-gradient-15" x1="24.2889" y1="1096.4808" x2="529.7252" y2="1096.4808" xlink:href="#linear-gradient"/><linearGradient id="linear-gradient-16" x1="304.8119" y1="987.3272" x2="251.9549" y2="1132.5507" xlink:href="#linear-gradient"/><linearGradient id="linear-gradient-17" x1="570.2877" y1="391.7464" x2="754.6813" y2="391.7464" gradientUnits="userSpaceOnUse"><stop offset="0" stop-color="#f7941d"/><stop offset="1" stop-color="#f9ed32"/></linearGradient><linearGradient id="linear-gradient-18" x1="1053.9536" y1="324.2014" x2="1271.4317" y2="324.2014" xlink:href="#linear-gradient-17"/><linearGradient id="linear-gradient-19" x1="1442.6291" y1="664.87" x2="1775.6647" y2="664.87" xlink:href="#linear-gradient-17"/><linearGradient id="linear-gradient-20" x1="1524.602" y1="1165.4255" x2="1825.6025" y2="1165.4255" xlink:href="#linear-gradient-17"/><linearGradient id="linear-gradient-21" x1="1241.2544" y1="1610.9177" x2="1425.4717" y2="1610.9177" xlink:href="#linear-gradient-17"/><linearGradient id="linear-gradient-22" x1="723.2679" y1="1675.2836" x2="941.6526" y2="1675.2836" xlink:href="#linear-gradient-17"/><linearGradient id="linear-gradient-23" x1="221.2052" y1="1332.4775" x2="554.6691" y2="1332.4775" xlink:href="#linear-gradient-17"/><linearGradient id="linear-gradient-24" x1="175.0952" y1="831.2274" x2="475.227" y2="831.2274" xlink:href="#linear-gradient-17"/><linearGradient id="linear-gradient-25" x1="499.4847" y1="1000.3102" x2="1499.632" y2="1000.3102" gradientUnits="userSpaceOnUse"><stop offset="0" stop-color="#f15a29"/><stop offset="1" stop-color="#fbb040"/></linearGradient><linearGradient id="linear-gradient-26" x1="679.733" y1="1268.6755" x2="1319.3837" y2="731.9448" xlink:href="#linear-gradient-17"/></defs><path class="cls-1" d="M619.4939,675.31C404.168,574.0456,499.4847,325.6421,302.208,316.7234,508.11,457.7716,270.2767,582.8175,554.9751,771.1455Z"/><path class="cls-2" d="M582.0657,724.9487,619.4939,675.31C381.2655,551.1431,523.9654,345.021,302.208,316.7234,509.8716,378.4939,346.031,609.28,582.0657,724.9487Z"/><path class="cls-3" d="M957.73,501.9887C875.7784,278.5971,1118.1931,168.94,984.16,23.913,1031.4413,268.9736,774.3886,190.7112,844.4725,524.79Z"/><path class="cls-4" d="M896.2153,510.98l61.5143-8.991C875.59,246.2087,1121.9805,199.9319,984.16,23.913,1088.4258,213.83,809.6619,262.786,896.2153,510.98Z"/><path class="cls-5" d="M1320.1257,616.5c98.7589-216.4866,348.2519-124.059,354.8805-321.426-138.6492,207.5249-266.4468-28.8411-451.4581,258.0238Z"/><path class="cls-6" d="M1270.0562,579.65l50.07,36.85c121.394-239.6533,329.1583-99.3551,354.8805-321.426C1615.65,503.44,1382.9777,342.2888,1270.0562,579.65Z"/><path class="cls-7" d="M1497.3609,952.701c222.4254-84.5381,334.8885,156.5877,478.35,20.8806-244.4954,50.122-169.2215-207.8216-502.4648-133.8653Z"/><path class="cls-8" d="M1487.6566,891.2953l9.7043,61.4058c254.81-85.102,303.9426,160.7344,478.35,20.88C1787.017,1080.0444,1734.8291,801.8673,1487.6566,891.2953Z"/><path class="cls-9" d="M1387.0633,1316.4017c217.6182,96.24,128.0923,346.7887,325.5229,351.1264-209.12-136.2315,25.747-266.7636-263.2457-448.4332Z"/><path class="cls-10" d="M1423.3294,1265.908l-36.2661,50.4937c241.0461,118.6046,103.1685,327.9832,325.5229,351.1264C1503.5449,1610.5939,1661.9851,1376.0672,1423.3294,1265.908Z"/><path class="cls-11" d="M1052.9414,1497.5266c87.1138,221.43-152.6906,336.6833-15.3277,478.56-52.9562-243.8972,205.8437-171.6219,128.025-503.9844Z"/><path class="cls-12" d="M1114.23,1487.11l-61.289,10.4163c88.0534,253.8047-157.1963,305.7875-15.3277,478.56C928.9682,1788.6411,1206.5209,1733.2284,1114.23,1487.11Z"/><path class="cls-13" d="M687.9852,1391.4574c-93.7079,218.72-345.2788,132.1082-347.325,329.5759,133.7954-210.687,267.0444,22.6493,445.3481-268.4322Z"/><path class="cls-14" d="M738.8964,1427.1351l-50.9112-35.6777C572.186,1633.8636,361.2214,1498.4252,340.66,1721.0333,395.1646,1511.3453,631.5142,1667.0531,738.8964,1427.1351Z"/><path class="cls-15" d="M502.9949,1059.46c-220.4035,89.6776-338.4326-148.7731-478.706-9.7729,243.2662-55.7831,173.9992,203.8382,505.4363,122.1676Z"/><path class="cls-16" d="M514.1217,1120.624l-11.1268-61.164c-252.7658,90.9929-307.5912-153.637-478.706-9.7729C210.4613,938.8736,269.0914,1215.7645,514.1217,1120.624Z"/><path class="cls-17" d="M712.77,543.8357,645.4986,378.5271l35.5881,179.6265c-98.6926.5141-148.9925-90.1128-76.4094-332.8167C793.5824,392.6422,771.8908,475.7237,712.77,543.8357Z"/><path class="cls-18" d="M1120.3,474.917,1189.86,310.5582l-102.0693,152.033c-70.05-69.5235-41.391-169.1327,181.7234-289.1054C1284.425,425.3863,1210.2768,468.6889,1120.3,474.917Z"/><path class="cls-19" d="M1456.8562,714.8363l165.5015-66.7952L1442.63,683.1122c-.23-98.6937,90.5412-148.7326,333.0352-75.4514C1607.8165,796.0836,1524.7978,774.153,1456.8562,714.8363Z"/><path class="cls-20" d="M1524.602,1122.5636l164.1579,70.0321-151.7387-102.5064c69.7248-69.85,169.2511-40.9041,288.5813,182.5546C1573.66,1286.83,1530.5711,1212.5575,1524.602,1122.5636Z"/><path class="cls-21" d="M1283.7152,1458.4276l66.3187,165.693L1315.48,1444.2922c98.694.0539,148.4715,90.9688,74.4928,333.2509C1202.0338,1609.1535,1224.2032,1526.1982,1283.7152,1458.4276Z"/><path class="cls-22" d="M875.7947,1525,805.29,1688.9556l102.9427-151.4431c69.6485,69.9255,40.4169,169.3681-183.3843,288.0548C711.3878,1573.5851,785.7839,1530.71,875.7947,1525Z"/><path class="cls-23" d="M540.6252,1283.1477l-165.8831,65.8416,179.927-34.0362c-.3379,98.6934-91.3956,148.209-333.4639,73.5335C390.135,1201.0329,473.0261,1223.4409,540.6252,1283.1477Z"/><path class="cls-24" d="M475.227,875.0372,311.4748,804.0615,462.6211,907.44c-70.1257,69.447-169.4837,39.9293-287.5259-184.2124C427.115,710.4912,469.7758,785.01,475.227,875.0372Z"/><circle class="cls-25" cx="999.5584" cy="1000.3102" r="500.0736"/><circle class="cls-26" cx="999.5584" cy="1000.3102" r="417.4927"/></svg>