<svg xmlns="http://www.w3.org/2000/svg" xmlns:xlink="http://www.w3.org/1999/xlink" viewBox="0 0 1000 1000"><defs><style>.cls-1{isolation:isolate;}.cls-10,.cls-11,.cls-12,.cls-13,.cls-14,.cls-15,.cls-16,.cls-19,.cls-2,.cls-20,.cls-21,.cls-22,.cls-23,.cls-24,.cls-25,.cls-27,.cls-28,.cls-29,.cls-3,.cls-30,.cls-31,.cls-32,.cls-33,.cls-34,.cls-35,.cls-37,.cls-4,.cls-5,.cls-6,.cls-7,.cls-8,.cls-9{fill-rule:evenodd;}.cls-2{fill:url(#Безымянный_градиент_547);}.cls-3{fill:url(#Безымянный_градиент_547-2);}.cls-4{fill:url(#Безымянный_градиент_547-3);}.cls-5{fill:url(#Безымянный_градиент_547-4);}.cls-6{fill:url(#Безымянный_градиент_547-5);}.cls-7{fill:url(#Безымянный_градиент_547-6);}.cls-8{fill:url(#Безымянный_градиент_541);}.cls-9{fill:url(#Безымянный_градиент_547-7);}.cls-10{fill:url(#Безымянный_градиент_540);}.cls-11{fill:url(#Безымянный_градиент_508);}.cls-12{fill:url(#Безымянный_градиент_490);}.cls-13{fill:url(#Безымянный_градиент_490-2);}.cls-14{fill:url(#Безымянный_градиент_519);}.cls-15{fill:url(#Безымянный_градиент_519-2);}.cls-16{fill:url(#Безымянный_градиент_508-2);}.cls-17{opacity:0.68;}.cls-17,.cls-23,.cls-24,.cls-25{mix-blend-mode:multiply;}.cls-18{fill:#e24d8d;}.cls-19{fill:url(#Безымянный_градиент_67);}.cls-20{fill:url(#Безымянный_градиент_529);}.cls-21{fill:url(#Безымянный_градиент_67-2);}.cls-22{fill:url(#Безымянный_градиент_529-2);}.cls-23,.cls-24,.cls-25{opacity:0.3;}.cls-23{fill:url(#Безымянный_градиент_533);}.cls-24{fill:url(#Безымянный_градиент_533-2);}.cls-25{fill:url(#Безымянный_градиент_533-3);}.cls-26{mix-blend-mode:screen;fill:url(#Безымянный_градиент_537);}.cls-27{fill:url(#Безымянный_градиент_474);}.cls-28{fill:url(#Безымянный_градиент_474-2);}.cls-29{fill:url(#Безымянный_градиент_474-3);}.cls-30{fill:url(#Безымянный_градиент_474-4);}.cls-31{fill:url(#Безымянный_градиент_474-5);}.cls-32{fill:url(#Безымянный_градиент_474-6);}.cls-33{fill:url(#Безымянный_градиент_474-7);}.cls-34{fill:url(#Безымянный_градиент_474-8);}.cls-35{fill:url(#Безымянный_градиент_474-9);}.cls-36{fill:#5c27b4;}.cls-37{fill:#5c2768;}</style><linearGradient id="Безымянный_градиент_547" x1="89.39083" y1="981.72586" x2="89.39083" y2="495.8099" gradientTransform="matrix(-1, 0, 0, 1, 674.96201, 0)" gradientUnits="userSpaceOnUse"><stop offset="0" stop-color="#ff3e81"/><stop offset="0.97923" stop-color="#ffea00"/></linearGradient><linearGradient id="Безымянный_градиент_547-2" x1="110.36814" y1="982.30236" x2="110.36814" y2="495.20821" xlink:href="#Безымянный_градиент_547"/><linearGradient id="Безымянный_градиент_547-3" x1="142.37406" y1="970.50484" x2="142.37406" y2="495.20821" xlink:href="#Безымянный_градиент_547"/><linearGradient id="Безымянный_градиент_547-4" x1="216.63542" y1="982.30236" x2="216.63542" y2="489.32809" xlink:href="#Безымянный_градиент_547"/><linearGradient id="Безымянный_градиент_547-5" x1="249.12188" y1="965.89102" x2="249.12188" y2="490.97317" xlink:href="#Безымянный_градиент_547"/><linearGradient id="Безымянный_градиент_547-6" x1="175.17525" y1="965.89102" x2="175.17525" y2="490.97317" xlink:href="#Безымянный_градиент_547"/><linearGradient id="Безымянный_градиент_541" x1="252.29508" y1="981.72586" x2="252.29508" y2="490.97317" gradientTransform="matrix(-1, 0, 0, 1, 674.96201, 0)" gradientUnits="userSpaceOnUse"><stop offset="0" stop-color="#fff"/><stop offset="0.97923" stop-color="#ffea00"/></linearGradient><linearGradient id="Безымянный_градиент_547-7" x1="273.64521" y1="976.61293" x2="273.64521" y2="489.90106" xlink:href="#Безымянный_градиент_547"/><radialGradient id="Безымянный_градиент_540" cx="507.36248" cy="491.27465" r="229.86239" gradientTransform="translate(1.35113 67.15486) rotate(0.18288) scale(1 0.86001)" xlink:href="#Безымянный_градиент_541"/><radialGradient id="Безымянный_градиент_508" cx="512.9214" cy="362.75111" r="231.13002" gradientTransform="translate(0.99836 49.14492) rotate(0.18288) scale(1 0.86001)" gradientUnits="userSpaceOnUse"><stop offset="0" stop-color="#ff9700"/><stop offset="0.97923" stop-color="#ff3100"/></radialGradient><radialGradient id="Безымянный_градиент_490" cx="335.22998" cy="478.22892" r="96.77794" gradientTransform="translate(1.31444 65.87799) rotate(0.18288) scale(1 0.86001)" gradientUnits="userSpaceOnUse"><stop offset="0" stop-color="#ff8e00"/><stop offset="0.97923" stop-color="#ff3100"/></radialGradient><radialGradient id="Безымянный_градиент_490-2" cx="672.64453" cy="476.48101" r="101.39014" gradientTransform="translate(1.31136 64.55633) rotate(0.18288) scale(1 0.86001)" xlink:href="#Безымянный_градиент_490"/><radialGradient id="Безымянный_градиент_519" cx="553.2554" cy="386.38761" r="196.7449" gradientTransform="translate(1.06345 52.32509) rotate(0.18288) scale(1 0.86001)" gradientUnits="userSpaceOnUse"><stop offset="0" stop-color="#ffea27"/><stop offset="0.97923" stop-color="#ff8034"/></radialGradient><radialGradient id="Безымянный_градиент_519-2" cx="450.91907" cy="360.1106" r="198.99291" gradientTransform="translate(0.9908 48.97317) rotate(0.18288) scale(1 0.86001)" xlink:href="#Безымянный_градиент_519"/><radialGradient id="Безымянный_градиент_508-2" cx="510.43344" cy="288.21229" r="181.93134" gradientTransform="translate(0.79374 38.71806) rotate(0.18288) scale(1 0.86001)" xlink:href="#Безымянный_градиент_508"/><linearGradient id="Безымянный_градиент_67" x1="717.9172" y1="558.63058" x2="717.9172" y2="313.60283" gradientUnits="userSpaceOnUse"><stop offset="0" stop-color="#ffabb6"/><stop offset="0.97923" stop-color="#ff3689"/></linearGradient><radialGradient id="Безымянный_градиент_529" cx="717.9172" cy="420.79536" r="81.27406" gradientUnits="userSpaceOnUse"><stop offset="0" stop-color="#ff432b"/><stop offset="0.97923" stop-color="#d90445"/></radialGradient><linearGradient id="Безымянный_градиент_67-2" x1="295.51732" y1="587.0332" x2="295.51732" y2="328.01508" xlink:href="#Безымянный_градиент_67"/><radialGradient id="Безымянный_градиент_529-2" cx="285.23719" cy="433.55129" r="74.73201" xlink:href="#Безымянный_градиент_529"/><linearGradient id="Безымянный_градиент_533" x1="507.95774" y1="233.70374" x2="700.85684" y2="233.70374" gradientUnits="userSpaceOnUse"><stop offset="0" stop-color="#ffeadb"/><stop offset="0.99441" stop-color="#d40061"/></linearGradient><linearGradient id="Безымянный_градиент_533-2" x1="308.96008" y1="226.48623" x2="498.08474" y2="226.48623" xlink:href="#Безымянный_градиент_533"/><linearGradient id="Безымянный_градиент_533-3" x1="492.30405" y1="443.89603" x2="492.30405" y2="313.39118" xlink:href="#Безымянный_градиент_533"/><radialGradient id="Безымянный_градиент_537" cx="507.95774" cy="313.39118" r="130.74141" gradientUnits="userSpaceOnUse"><stop offset="0" stop-color="#ffef00"/><stop offset="0.08249" stop-color="#e0d200"/><stop offset="0.27722" stop-color="#9d9300"/><stop offset="0.46217" stop-color="#655f00"/><stop offset="0.63195" stop-color="#393600"/><stop offset="0.78351" stop-color="#1a1800"/><stop offset="0.91133" stop-color="#070600"/><stop offset="1"/></radialGradient><linearGradient id="Безымянный_градиент_474" x1="519.78106" y1="-217.92843" x2="356.37897" y2="1069.48201" gradientUnits="userSpaceOnUse"><stop offset="0" stop-color="#ff593c"/><stop offset="0.48883" stop-color="#ff0045"/><stop offset="0.70112" stop-color="#d8207f"/><stop offset="0.97923" stop-color="#0065b3"/></linearGradient><linearGradient id="Безымянный_градиент_474-2" x1="739.75866" y1="-239.36458" x2="573.94345" y2="1067.0583" xlink:href="#Безымянный_градиент_474"/><linearGradient id="Безымянный_градиент_474-3" x1="541.25578" y1="-222.02135" x2="377.04126" y2="1071.79009" xlink:href="#Безымянный_градиент_474"/><linearGradient id="Безымянный_градиент_474-4" x1="570.63228" y1="-207.95546" x2="410.03936" y2="1057.32216" xlink:href="#Безымянный_градиент_474"/><linearGradient id="Безымянный_градиент_474-5" x1="650.57847" y1="-244.42623" x2="482.90607" y2="1076.62902" xlink:href="#Безымянный_градиент_474"/><linearGradient id="Безымянный_градиент_474-6" x1="679.06774" y1="-217.45387" x2="517.66071" y2="1054.23786" xlink:href="#Безымянный_градиент_474"/><linearGradient id="Безымянный_градиент_474-7" x1="605.12111" y1="-217.45387" x2="443.71408" y2="1054.23786" xlink:href="#Безымянный_градиент_474"/><linearGradient id="Безымянный_градиент_474-8" x1="703.06743" y1="-238.78645" x2="536.32644" y2="1074.93044" xlink:href="#Безымянный_градиент_474"/><linearGradient id="Безымянный_градиент_474-9" x1="713.68396" y1="-243.89193" x2="546.25134" y2="1075.27416" xlink:href="#Безымянный_градиент_474"/></defs><g class="cls-1"><g id="background"><polygon class="cls-2" points="615.167 496.228 580.806 956.155 570.257 957.269 609.397 496.438 561.856 981.726 555.975 981.726 600.019 495.81 615.167 496.228"/><polygon class="cls-3" points="583.091 495.343 555.975 981.726 546.097 982.302 578.211 495.208 583.091 495.343"/><polygon class="cls-4" points="546.097 495.343 528.958 969.928 519.079 970.505 541.217 495.208 546.097 495.343"/><polygon class="cls-5" points="457.685 489.328 468.63 982.302 457.685 982.302 448.023 491.099 457.685 489.328"/><polygon class="cls-6" points="424.715 490.973 429.49 965.891 424.715 965.891 422.191 490.973 424.715 490.973"/><polygon class="cls-7" points="498.662 490.973 503.436 965.891 498.662 965.891 496.137 490.973 498.662 490.973"/><polygon class="cls-8" points="410.849 490.973 440.778 981.726 428.191 981.726 404.556 490.973 410.849 490.973"/><polygon class="cls-9" points="398.263 490.973 416.776 972.29 410.476 976.613 385.857 489.901 398.263 490.973"/><polygon class="cls-10" points="371.446 443.896 386.594 498.961 617.28 498.961 638.699 435.582 371.446 443.896"/><polygon class="cls-11" points="371.446 443.896 507.958 313.391 638.699 435.582 371.446 443.896"/><polygon class="cls-12" points="371.446 443.896 282.075 328.015 386.594 498.961 371.446 443.896"/><polygon class="cls-13" points="638.699 435.582 726.144 313.603 617.28 498.961 638.699 435.582"/><polygon class="cls-14" points="507.958 313.391 604.852 154.016 726.144 313.603 638.699 435.582 507.958 313.391"/><polygon class="cls-15" points="507.958 313.391 398.951 154.016 282.075 328.015 371.446 443.896 507.958 313.391"/><polygon class="cls-16" points="398.951 154.016 604.852 154.016 507.958 313.391 398.951 154.016"/><g class="cls-17"><path class="cls-18" d="M507.98558,318.3137,629.92252,432.27626,380.6671,440.0301,507.98558,318.3137Zm-.02784-4.92254L371.44628,443.89606l267.25289-8.31368L507.95774,313.39116Z"/><path class="cls-18" d="M605.18114,160.36135,721.69768,313.66494l-83.53237,116.522-125.63955-117.423,92.65538-152.40254Zm-.32905-6.345L507.95774,313.39116,638.69917,435.58235l87.4447-121.97949L604.85209,154.01632Z"/><path class="cls-18" d="M398.97813,160.39222,503.29042,312.904,371.84967,438.56128,286.481,327.87079,398.97813,160.39222Zm-.02675-6.37591L282.07456,328.01506l89.37172,115.881L507.95774,313.39115,398.95138,154.01631Z"/><path class="cls-18" d="M598.49056,157.59369l-90.70968,149.2021L405.73224,157.59369Zm6.36153-3.57739H398.95138L507.95774,313.39117,604.85209,154.0163Z"/><path class="cls-18" d="M633.66039,439.31823,614.7125,495.38385H389.3205l-13.21919-48.0535,257.55908-8.01212Zm5.03878-3.73588L371.44628,443.896l15.14811,55.0652H617.27971l21.41946-63.37888Z"/></g><polygon class="cls-19" points="726.144 313.603 709.691 550.029 717.917 550.029 722.231 420.787 720.928 556.371 726.144 558.631 726.144 313.603"/><polygon class="cls-20" points="720.48 306.151 709.691 531.791 715.085 535.439 726.144 313.603 720.48 306.151"/><polygon class="cls-21" points="282.075 328.015 290.881 568.372 298.885 566.236 290.881 392.123 303.054 587.033 308.96 587.033 286.469 333.713 282.075 328.015"/><polygon class="cls-22" points="282.075 328.015 279.593 535.439 290.881 539.087 286.469 333.713 282.075 328.015"/><path class="cls-23" d="M507.95774,313.39118,604.852,154.0163l96.00481,126.31579s-68.547-89.67436-96.44955-84.68178S507.95774,313.39118,507.95774,313.39118Z"/><path class="cls-24" d="M308.96008,287.98963,398.9514,154.0163l99.13334,144.93987s-79.5504-109.55965-103.06859-102.78471S308.96008,287.98963,308.96008,287.98963Z"/><path class="cls-25" d="M371.44629,443.896,507.95774,313.39118,613.1618,411.71513s-75.8591-79.00264-105.20406-77.96034S371.44629,443.896,371.44629,443.896Z"/><circle class="cls-26" cx="507.95774" cy="313.39118" r="130.74141"/><polygon class="cls-27" points="371.446 443.896 405.807 962.455 416.356 963.711 377.216 444.133 424.757 991.285 430.638 991.285 386.594 443.425 371.446 443.896"/><polygon class="cls-28" points="621.263 436.264 592.442 954.823 602.991 956.079 627.033 436.5 611.392 983.653 617.272 983.653 636.411 435.792 621.263 436.264"/><polygon class="cls-29" points="403.522 442.898 430.638 991.285 440.516 991.935 408.402 442.746 403.522 442.898"/><polygon class="cls-30" points="440.516 442.898 457.656 977.984 467.534 978.634 445.396 442.746 440.516 442.898"/><polygon class="cls-31" points="528.929 436.117 517.984 991.935 528.929 991.935 538.59 438.113 528.929 436.117"/><polygon class="cls-32" points="561.898 437.972 557.124 973.432 561.898 973.432 564.423 437.972 561.898 437.972"/><polygon class="cls-33" points="487.951 437.972 483.177 973.432 487.951 973.432 490.476 437.972 487.951 437.972"/><polygon class="cls-34" points="575.764 437.972 575.764 991.285 588.35 991.285 582.057 437.972 575.764 437.972"/><polygon class="cls-35" points="588.35 437.972 585.878 991.285 596.535 984.715 600.756 436.763 588.35 437.972"/><polygon class="cls-36" points="399.536 154.697 398.369 153.338 503.448 63.188 605.446 153.346 604.258 154.688 503.427 65.561 399.536 154.697"/><polygon class="cls-36" points="551.278 154.443 503.619 66.582 473.191 154.31 471.5 153.724 503.256 62.167 552.85 153.591 551.278 154.443"/><polygon class="cls-37" points="488.127 77.508 515.668 75.186 512.749 52.66 492.49 52.66 488.127 77.508"/><polygon class="cls-36" points="501.01 52.727 499.206 8.117 501.898 8.065 502.791 52.594 501.01 52.727"/></g></g></svg>