<svg id="background" xmlns="http://www.w3.org/2000/svg" xmlns:xlink="http://www.w3.org/1999/xlink" viewBox="0 0 1000 1000"><defs><style>.cls-1{fill-rule:evenodd;fill:url(#linear-gradient);}</style><linearGradient id="linear-gradient" x1="473.11831" y1="971.50538" x2="473.11831" y2="28.49462" gradientUnits="userSpaceOnUse"><stop offset="0" stop-color="#f9ed32"/><stop offset="0.17039" stop-color="#f7941d"/><stop offset="0.19033" stop-color="#f7921d"/><stop offset="0.52075" stop-color="#f47324"/><stop offset="0.80225" stop-color="#f26128"/><stop offset="1" stop-color="#f15a29"/></linearGradient></defs><path class="cls-1" d="M794.0026,838.90025c3.42777-10.6445-8.596-29.53229-27.76923-52.38949l-33.52619-53.389A90.37383,90.37383,0,0,0,703.371,690.50932c-38.50847-123.08083,1.83091-241.89925-90.57152-259.96559-17.89465-.66062-34.29443-3.44667-49.09164-8.50179-32.94394-9.62772-39.06084-35.86842-34.7747-68.56017a73.31122,73.31122,0,0,0,9.67057-18.1927c.07812,16.906,3.17555,27.52745,11.11136,28.07318q8.9685-.88754,7.8398-7.66312c-8.272-18.7499-6.159-41.38884.30616-65.66494,6.48916-15.32622,10.96128-29.27375-2.13106-31.20963-1.78284-1.304-1.72275-4.383-1.41059-7.7091,9.54454-44.91019,2.85137-81.49667-45.70608-96.59884v-6.51424c4.74223-.787,3.12748-6.14654,0-12.5976,3.79988-1.49929,1.93892-5.4917-.58827-9.777,3.89587-1.98185,2.095-5.18727,0-8.46162.20415-5.957-2.37111-9.17964-8.254-9.14517-.72633-5.33659-4.57427-7.88714-11.32752-7.83546V99.0596c19.71354-15.85473-.39614-42.3654-15.32525-70.565C458.189,56.6942,438.08535,83.20487,457.79289,99.0596v1.12589c-6.74725-.05168-10.59519,2.49887-11.32753,7.83546-5.88286-.03447-8.452,3.18817-8.248,9.14517-2.095,3.27435-3.89587,6.47977,0,8.46162-2.5332,4.28534-4.394,8.27775-.59428,9.777-3.12748,6.45106-4.74222,11.81062,0,12.5976v6.51424c-48.55731,15.10217-55.24461,51.68865-45.70593,96.59884.31216,3.32607.3721,6.40509-1.41074,7.7091-13.09234,1.93588-8.62007,15.88341-2.125,31.20963,6.46513,24.2761,8.57815,46.915.30616,65.66494q-1.12556,6.77275,7.8338,7.66312c7.9358-.54573,11.03324-11.16723,11.11135-28.07318a73.31631,73.31631,0,0,0,9.67072,18.1927c4.286,32.69175-1.83091,58.93245-34.77484,68.56017-14.79707,5.05512-31.197,7.84117-49.0915,8.50179-92.40258,18.06634-52.06319,136.88476-90.56566,259.96559a90.33258,90.33258,0,0,0-29.33619,42.61241l-33.53206,53.389c-19.17326,22.8572-31.197,41.745-27.76336,52.38949-62.89829,9.40943-71.51249,91.99753-47.93914,132.60513l368.8176-4.51514,368.81745,4.51514C865.50908,930.89778,856.89488,848.30968,794.0026,838.90025ZM360.83421,742.10033a9.86549,9.86549,0,0,1-.78641,5.80764,14.8921,14.8921,0,0,0-1.18256,8.19161c1.26067,9.17964-6.68114,13.00547-18.855,14.37265-18.81911,14.75177-42.47645,24.06927-71.64454,27.28044a50.86671,50.86671,0,0,0-28.68182,8.73159c-4.6222,5.00915-9.62866,6.45677-14.97718,4.84258,45.11766-39.26917,87.12-79.107,84.69482-127.08474,2.197-16.3085,12.786-43.33047,26.54475-74.408,1.63878-2.25757,4.64023-1.27529,5.19845,0,19.73743,33.80614,28.15349,69.59987,28.20156,106.86994C360.43807,725.97562,360.83421,742.10033,360.83421,742.10033Zm345.71834,64.38393a50.85214,50.85214,0,0,0-28.68182-8.73159c-29.16794-3.21117-52.82542-12.52867-71.63839-27.28044-12.17988-1.36718-20.12169-5.193-18.86117-14.37265a14.83151,14.83151,0,0,0-1.17655-8.19161,9.8173,9.8173,0,0,1-.78626-5.80764s.39013-16.12471-8.51821-25.39628c.04807-37.27007,8.46413-73.0638,28.20757-106.86994.55222-1.27529,3.55366-2.25757,5.19258,0,13.75858,31.07752,24.34761,58.09949,26.54476,74.408-2.42519,47.97775,39.577,87.81557,84.69467,127.08474C716.18121,812.941,711.17475,811.49341,706.55255,806.48426Z"/></svg>