<svg xmlns="http://www.w3.org/2000/svg" xmlns:xlink="http://www.w3.org/1999/xlink" viewBox="0 0 6000 553.21391"><defs><style>.cls-1{isolation:isolate;}.cls-2{fill:url(#Безымянный_градиент_992);}.cls-10,.cls-100,.cls-101,.cls-102,.cls-103,.cls-104,.cls-105,.cls-106,.cls-107,.cls-108,.cls-109,.cls-11,.cls-110,.cls-111,.cls-112,.cls-113,.cls-12,.cls-13,.cls-14,.cls-15,.cls-16,.cls-17,.cls-18,.cls-19,.cls-20,.cls-21,.cls-22,.cls-23,.cls-24,.cls-25,.cls-26,.cls-27,.cls-28,.cls-29,.cls-3,.cls-30,.cls-31,.cls-32,.cls-33,.cls-34,.cls-35,.cls-36,.cls-37,.cls-38,.cls-39,.cls-4,.cls-40,.cls-41,.cls-42,.cls-43,.cls-44,.cls-45,.cls-46,.cls-47,.cls-48,.cls-49,.cls-5,.cls-50,.cls-51,.cls-52,.cls-53,.cls-54,.cls-55,.cls-56,.cls-57,.cls-58,.cls-59,.cls-6,.cls-60,.cls-61,.cls-62,.cls-63,.cls-64,.cls-65,.cls-66,.cls-67,.cls-68,.cls-69,.cls-7,.cls-70,.cls-71,.cls-72,.cls-73,.cls-74,.cls-75,.cls-76,.cls-77,.cls-78,.cls-79,.cls-8,.cls-80,.cls-81,.cls-82,.cls-83,.cls-84,.cls-85,.cls-86,.cls-87,.cls-88,.cls-89,.cls-9,.cls-90,.cls-91,.cls-92,.cls-93,.cls-94,.cls-95,.cls-96,.cls-97,.cls-98,.cls-99{mix-blend-mode:screen;}.cls-3{fill:url(#Безымянный_градиент_918);}.cls-4{fill:#fb0;}.cls-5{fill:url(#Безымянный_градиент_918-2);}.cls-6{fill:#ff7c00;}.cls-7{fill:url(#Безымянный_градиент_918-3);}.cls-8{fill:url(#Безымянный_градиент_918-4);}.cls-9{fill:url(#Безымянный_градиент_918-5);}.cls-10{fill:url(#Безымянный_градиент_918-6);}.cls-11{fill:url(#Безымянный_градиент_918-7);}.cls-12{fill:url(#Безымянный_градиент_918-8);}.cls-13{fill:url(#Безымянный_градиент_918-9);}.cls-14{fill:url(#Безымянный_градиент_918-10);}.cls-15{fill:url(#Безымянный_градиент_918-11);}.cls-16{fill:url(#Безымянный_градиент_918-12);}.cls-17{fill:url(#Безымянный_градиент_918-13);}.cls-18{fill:url(#Безымянный_градиент_918-14);}.cls-19{fill:url(#Безымянный_градиент_918-15);}.cls-20{fill:url(#Безымянный_градиент_918-16);}.cls-21{fill:url(#Безымянный_градиент_918-17);}.cls-22{fill:url(#Безымянный_градиент_918-18);}.cls-23{fill:url(#Безымянный_градиент_918-19);}.cls-24{fill:url(#Безымянный_градиент_918-20);}.cls-25{fill:url(#Безымянный_градиент_918-21);}.cls-26{fill:url(#Безымянный_градиент_918-22);}.cls-27{fill:url(#Безымянный_градиент_918-23);}.cls-28{fill:url(#Безымянный_градиент_918-24);}.cls-29{fill:url(#Безымянный_градиент_918-25);}.cls-30{fill:url(#Безымянный_градиент_918-26);}.cls-31{fill:url(#Безымянный_градиент_918-27);}.cls-32{fill:url(#Безымянный_градиент_918-28);}.cls-33{fill:url(#Безымянный_градиент_918-29);}.cls-34{fill:url(#Безымянный_градиент_918-30);}.cls-35{fill:url(#Безымянный_градиент_918-31);}.cls-36{fill:url(#Безымянный_градиент_918-32);}.cls-37{fill:url(#Безымянный_градиент_918-33);}.cls-38{fill:url(#Безымянный_градиент_918-34);}.cls-39{fill:url(#Безымянный_градиент_918-35);}.cls-40{fill:url(#Безымянный_градиент_918-36);}.cls-41{fill:url(#Безымянный_градиент_918-37);}.cls-42{fill:url(#Безымянный_градиент_918-38);}.cls-43{fill:url(#Безымянный_градиент_918-39);}.cls-44{fill:url(#Безымянный_градиент_918-40);}.cls-45{fill:url(#Безымянный_градиент_918-41);}.cls-46{fill:url(#Безымянный_градиент_918-42);}.cls-47{fill:url(#Безымянный_градиент_918-43);}.cls-48{fill:url(#Безымянный_градиент_918-44);}.cls-49{fill:url(#Безымянный_градиент_918-45);}.cls-50{fill:url(#Безымянный_градиент_918-46);}.cls-51{fill:url(#Безымянный_градиент_918-47);}.cls-52{fill:url(#Безымянный_градиент_918-48);}.cls-53{fill:url(#Безымянный_градиент_918-49);}.cls-54{fill:url(#Безымянный_градиент_918-50);}.cls-55{fill:url(#Безымянный_градиент_918-51);}.cls-56{fill:url(#Безымянный_градиент_918-52);}.cls-57{fill:url(#Безымянный_градиент_918-53);}.cls-58{fill:url(#Безымянный_градиент_918-54);}.cls-59{fill:url(#Безымянный_градиент_918-55);}.cls-60{fill:url(#Безымянный_градиент_918-56);}.cls-61{fill:url(#Безымянный_градиент_918-57);}.cls-62{fill:url(#Безымянный_градиент_918-58);}.cls-63{fill:url(#Безымянный_градиент_918-59);}.cls-64{fill:url(#Безымянный_градиент_918-60);}.cls-65{fill:url(#Безымянный_градиент_918-61);}.cls-66{fill:url(#Безымянный_градиент_918-62);}.cls-67{fill:url(#Безымянный_градиент_918-63);}.cls-68{fill:url(#Безымянный_градиент_918-64);}.cls-69{fill:url(#Безымянный_градиент_918-65);}.cls-70{fill:url(#Безымянный_градиент_918-66);}.cls-71{fill:url(#Безымянный_градиент_918-67);}.cls-72{fill:url(#Безымянный_градиент_918-68);}.cls-73{fill:url(#Безымянный_градиент_918-69);}.cls-74{fill:url(#Безымянный_градиент_918-70);}.cls-75{fill:url(#Безымянный_градиент_918-71);}.cls-76{fill:url(#Безымянный_градиент_918-72);}.cls-77{fill:url(#Безымянный_градиент_918-73);}.cls-78{fill:url(#Безымянный_градиент_918-74);}.cls-79{fill:url(#Безымянный_градиент_918-75);}.cls-80{fill:url(#Безымянный_градиент_918-76);}.cls-81{fill:url(#Безымянный_градиент_918-77);}.cls-82{fill:url(#Безымянный_градиент_918-78);}.cls-83{fill:url(#Безымянный_градиент_918-79);}.cls-84{fill:url(#Безымянный_градиент_918-80);}.cls-85{fill:url(#Безымянный_градиент_918-81);}.cls-86{fill:url(#Безымянный_градиент_918-82);}.cls-87{fill:url(#Безымянный_градиент_918-83);}.cls-88{fill:url(#Безымянный_градиент_918-84);}.cls-89{fill:url(#Безымянный_градиент_918-85);}.cls-90{fill:url(#Безымянный_градиент_918-86);}.cls-91{fill:url(#Безымянный_градиент_918-87);}.cls-92{fill:url(#Безымянный_градиент_918-88);}.cls-93{fill:url(#Безымянный_градиент_918-89);}.cls-94{fill:url(#Безымянный_градиент_918-90);}.cls-95{fill:url(#Безымянный_градиент_918-91);}.cls-96{fill:url(#Безымянный_градиент_918-92);}.cls-97{fill:url(#Безымянный_градиент_918-93);}.cls-98{fill:url(#Безымянный_градиент_918-94);}.cls-99{fill:url(#Безымянный_градиент_918-95);}.cls-100{fill:url(#Безымянный_градиент_918-96);}.cls-101{fill:url(#Безымянный_градиент_918-97);}.cls-102{fill:url(#Безымянный_градиент_918-98);}.cls-103{fill:url(#Безымянный_градиент_918-99);}.cls-104{fill:url(#Безымянный_градиент_918-100);}.cls-105{fill:url(#Безымянный_градиент_918-101);}.cls-106{fill:url(#Безымянный_градиент_918-102);}.cls-107{fill:url(#Безымянный_градиент_918-103);}.cls-108{fill:url(#Безымянный_градиент_918-104);}.cls-109{fill:url(#Безымянный_градиент_918-105);}.cls-110{fill:url(#Безымянный_градиент_918-106);}.cls-111{fill:url(#Безымянный_градиент_918-107);}.cls-112{fill:url(#Безымянный_градиент_918-108);}.cls-113{fill:url(#Безымянный_градиент_918-109);}</style><linearGradient id="Безымянный_градиент_992" x1="3000" y1="553.21391" x2="3000" gradientUnits="userSpaceOnUse"><stop offset="0" stop-color="#720045"/><stop offset="0.06145" stop-color="#6e0044"/><stop offset="0.12203" stop-color="#620042"/><stop offset="0.17039" stop-color="#53003f"/><stop offset="0.33895" stop-color="#48003d"/><stop offset="0.71541" stop-color="#360039"/><stop offset="0.98045" stop-color="#2f0038"/></linearGradient><radialGradient id="Безымянный_градиент_918" cx="987.02189" cy="11.53206" r="11.53206" gradientUnits="userSpaceOnUse"><stop offset="0" stop-color="#ff5e00"/><stop offset="0.02104" stop-color="#ef5800"/><stop offset="0.09314" stop-color="#bd4600"/><stop offset="0.17077" stop-color="#903500"/><stop offset="0.2522" stop-color="#692700"/><stop offset="0.33824" stop-color="#491b00"/><stop offset="0.43037" stop-color="#2e1100"/><stop offset="0.53079" stop-color="#1a0900"/><stop offset="0.64378" stop-color="#0b0400"/><stop offset="0.77959" stop-color="#030100"/><stop offset="1"/></radialGradient><radialGradient id="Безымянный_градиент_918-2" cx="590.80092" cy="340.1619" r="3.80853" xlink:href="#Безымянный_градиент_918"/><radialGradient id="Безымянный_градиент_918-3" cx="543.84406" cy="304.34737" r="3.80853" xlink:href="#Безымянный_градиент_918"/><radialGradient id="Безымянный_градиент_918-4" cx="340.13284" cy="420.73291" r="3.80853" xlink:href="#Безымянный_градиент_918"/><radialGradient id="Безымянный_градиент_918-5" cx="274.93696" cy="83.08205" r="3.80853" xlink:href="#Безымянный_градиент_918"/><radialGradient id="Безымянный_градиент_918-6" cx="1025.07187" cy="457.58519" r="3.80853" xlink:href="#Безымянный_градиент_918"/><radialGradient id="Безымянный_градиент_918-7" cx="72.68174" cy="241.29099" r="3.80853" xlink:href="#Безымянный_градиент_918"/><radialGradient id="Безымянный_градиент_918-8" cx="1043.8945" cy="355.81423" r="3.80853" xlink:href="#Безымянный_градиент_918"/><radialGradient id="Безымянный_градиент_918-9" cx="798.75153" cy="53.65412" r="3.80853" xlink:href="#Безымянный_градиент_918"/><radialGradient id="Безымянный_градиент_918-10" cx="970.671" cy="330.80141" r="3.80853" xlink:href="#Безымянный_градиент_918"/><radialGradient id="Безымянный_градиент_918-11" cx="722.59163" cy="454.49787" r="3.80853" xlink:href="#Безымянный_градиент_918"/><radialGradient id="Безымянный_градиент_918-12" cx="1541.77329" cy="422.72333" r="3.80853" xlink:href="#Безымянный_градиент_918"/><radialGradient id="Безымянный_градиент_918-13" cx="1127.19073" cy="300.72678" r="3.80853" xlink:href="#Безымянный_градиент_918"/><radialGradient id="Безымянный_градиент_918-14" cx="1534.15623" cy="75.68173" r="3.80853" xlink:href="#Безымянный_градиент_918"/><radialGradient id="Безымянный_градиент_918-15" cx="1130.99926" cy="52.92728" r="3.80853" xlink:href="#Безымянный_градиент_918"/><radialGradient id="Безымянный_градиент_918-16" cx="336.32431" cy="488.53493" r="3.80853" xlink:href="#Безымянный_градиент_918"/><radialGradient id="Безымянный_градиент_918-17" cx="131.84286" cy="98.12808" r="3.80853" xlink:href="#Безымянный_градиент_918"/><radialGradient id="Безымянный_градиент_918-18" cx="1163.30954" cy="285.30125" r="11.53206" xlink:href="#Безымянный_градиент_918"/><radialGradient id="Безымянный_градиент_918-19" cx="1510.00752" cy="539.15574" r="11.53206" xlink:href="#Безымянный_градиент_918"/><radialGradient id="Безымянный_градиент_918-20" cx="11.53206" cy="482.58135" r="11.53206" xlink:href="#Безымянный_градиент_918"/><radialGradient id="Безымянный_градиент_918-21" cx="1000.46584" cy="100.2017" r="11.53206" xlink:href="#Безымянный_градиент_918"/><radialGradient id="Безымянный_градиент_918-22" cx="562.32336" cy="357.88785" r="11.53206" xlink:href="#Безымянный_градиент_918"/><radialGradient id="Безымянный_градиент_918-23" cx="1055.28585" cy="286.52836" r="11.53206" xlink:href="#Безымянный_градиент_918"/><radialGradient id="Безымянный_градиент_918-24" cx="922.48209" cy="298.65316" r="11.53206" xlink:href="#Безымянный_градиент_918"/><radialGradient id="Безымянный_градиент_918-25" cx="301.14575" cy="29.87421" r="11.53206" xlink:href="#Безымянный_градиент_918"/><radialGradient id="Безымянный_градиент_918-26" cx="660.94901" cy="281.40434" r="11.53206" xlink:href="#Безымянный_градиент_918"/><radialGradient id="Безымянный_градиент_918-27" cx="503.12207" cy="18.34214" r="11.53206" xlink:href="#Безымянный_градиент_918"/><radialGradient id="Безымянный_градиент_918-28" cx="96.88595" cy="346.35579" r="7.92076" xlink:href="#Безымянный_градиент_918"/><radialGradient id="Безымянный_градиент_918-29" cx="1346.1223" cy="465.37357" r="7.92076" xlink:href="#Безымянный_градиент_918"/><radialGradient id="Безымянный_градиент_918-30" cx="1502.52131" cy="20.41577" r="7.92076" xlink:href="#Безымянный_градиент_918"/><radialGradient id="Безымянный_градиент_918-31" cx="2645.766" cy="11.53206" r="11.53206" xlink:href="#Безымянный_градиент_918"/><radialGradient id="Безымянный_градиент_918-32" cx="2249.54502" cy="340.1619" r="3.80853" xlink:href="#Безымянный_градиент_918"/><radialGradient id="Безымянный_градиент_918-33" cx="2202.58817" cy="304.34737" r="3.80853" xlink:href="#Безымянный_градиент_918"/><radialGradient id="Безымянный_градиент_918-34" cx="1998.87695" cy="420.73291" r="3.80853" xlink:href="#Безымянный_градиент_918"/><radialGradient id="Безымянный_градиент_918-35" cx="1933.68106" cy="83.08205" r="3.80853" xlink:href="#Безымянный_градиент_918"/><radialGradient id="Безымянный_градиент_918-36" cx="2683.81598" cy="457.58519" r="3.80853" xlink:href="#Безымянный_градиент_918"/><radialGradient id="Безымянный_градиент_918-37" cx="1731.42585" cy="241.29099" r="3.80853" xlink:href="#Безымянный_градиент_918"/><radialGradient id="Безымянный_градиент_918-38" cx="2702.63861" cy="355.81423" r="3.80853" xlink:href="#Безымянный_градиент_918"/><radialGradient id="Безымянный_градиент_918-39" cx="2457.49564" cy="53.65412" r="3.80853" xlink:href="#Безымянный_градиент_918"/><radialGradient id="Безымянный_градиент_918-40" cx="2629.41511" cy="330.80141" r="3.80853" xlink:href="#Безымянный_градиент_918"/><radialGradient id="Безымянный_градиент_918-41" cx="2381.33573" cy="454.49787" r="3.80853" xlink:href="#Безымянный_градиент_918"/><radialGradient id="Безымянный_градиент_918-42" cx="3200.5174" cy="422.72333" r="3.80853" xlink:href="#Безымянный_градиент_918"/><radialGradient id="Безымянный_градиент_918-43" cx="2785.93484" cy="300.72678" r="3.80853" xlink:href="#Безымянный_градиент_918"/><radialGradient id="Безымянный_градиент_918-44" cx="3192.90034" cy="75.68173" r="3.80853" xlink:href="#Безымянный_градиент_918"/><radialGradient id="Безымянный_градиент_918-45" cx="2789.74337" cy="52.92728" r="3.80853" xlink:href="#Безымянный_градиент_918"/><radialGradient id="Безымянный_градиент_918-46" cx="1995.06842" cy="488.53493" r="3.80853" xlink:href="#Безымянный_градиент_918"/><radialGradient id="Безымянный_градиент_918-47" cx="1790.58697" cy="98.12808" r="3.80853" xlink:href="#Безымянный_градиент_918"/><radialGradient id="Безымянный_градиент_918-48" cx="2822.05365" cy="285.30125" r="11.53206" xlink:href="#Безымянный_градиент_918"/><radialGradient id="Безымянный_градиент_918-49" cx="3168.75163" cy="539.15574" r="11.53206" xlink:href="#Безымянный_градиент_918"/><radialGradient id="Безымянный_градиент_918-50" cx="1670.27617" cy="482.58135" r="11.53206" xlink:href="#Безымянный_градиент_918"/><radialGradient id="Безымянный_градиент_918-51" cx="2659.20995" cy="100.2017" r="11.53206" xlink:href="#Безымянный_градиент_918"/><radialGradient id="Безымянный_градиент_918-52" cx="2221.06747" cy="357.88785" r="11.53206" xlink:href="#Безымянный_градиент_918"/><radialGradient id="Безымянный_градиент_918-53" cx="2714.02996" cy="286.52836" r="11.53206" xlink:href="#Безымянный_градиент_918"/><radialGradient id="Безымянный_градиент_918-54" cx="2581.2262" cy="298.65316" r="11.53206" xlink:href="#Безымянный_градиент_918"/><radialGradient id="Безымянный_градиент_918-55" cx="1959.88986" cy="29.87421" r="11.53206" xlink:href="#Безымянный_градиент_918"/><radialGradient id="Безымянный_градиент_918-56" cx="2319.69312" cy="281.40434" r="11.53206" xlink:href="#Безымянный_градиент_918"/><radialGradient id="Безымянный_градиент_918-57" cx="2161.86618" cy="18.34214" r="11.53206" xlink:href="#Безымянный_градиент_918"/><radialGradient id="Безымянный_градиент_918-58" cx="1755.63006" cy="346.35579" r="7.92076" xlink:href="#Безымянный_градиент_918"/><radialGradient id="Безымянный_градиент_918-59" cx="3004.86641" cy="465.37357" r="7.92076" xlink:href="#Безымянный_градиент_918"/><radialGradient id="Безымянный_градиент_918-60" cx="3161.26541" cy="20.41577" r="7.92076" xlink:href="#Безымянный_градиент_918"/><radialGradient id="Безымянный_градиент_918-61" cx="4304.51011" cy="11.53206" r="11.53206" xlink:href="#Безымянный_градиент_918"/><radialGradient id="Безымянный_градиент_918-62" cx="3908.28913" cy="340.1619" r="3.80853" xlink:href="#Безымянный_градиент_918"/><radialGradient id="Безымянный_градиент_918-63" cx="3861.33228" cy="304.34737" r="3.80853" xlink:href="#Безымянный_градиент_918"/><radialGradient id="Безымянный_градиент_918-64" cx="3657.62106" cy="420.73291" r="3.80853" xlink:href="#Безымянный_градиент_918"/><radialGradient id="Безымянный_градиент_918-65" cx="3592.42517" cy="83.08205" r="3.80853" xlink:href="#Безымянный_градиент_918"/><radialGradient id="Безымянный_градиент_918-66" cx="4342.56009" cy="457.58519" r="3.80853" xlink:href="#Безымянный_градиент_918"/><radialGradient id="Безымянный_градиент_918-67" cx="3390.16996" cy="241.29099" r="3.80853" xlink:href="#Безымянный_градиент_918"/><radialGradient id="Безымянный_градиент_918-68" cx="4361.38272" cy="355.81423" r="3.80853" xlink:href="#Безымянный_градиент_918"/><radialGradient id="Безымянный_градиент_918-69" cx="4116.23975" cy="53.65412" r="3.80853" xlink:href="#Безымянный_градиент_918"/><radialGradient id="Безымянный_градиент_918-70" cx="4288.15921" cy="330.80141" r="3.80853" xlink:href="#Безымянный_градиент_918"/><radialGradient id="Безымянный_градиент_918-71" cx="4040.07984" cy="454.49787" r="3.80853" xlink:href="#Безымянный_градиент_918"/><radialGradient id="Безымянный_градиент_918-72" cx="4859.2615" cy="422.72333" r="3.80853" xlink:href="#Безымянный_градиент_918"/><radialGradient id="Безымянный_градиент_918-73" cx="4444.67895" cy="300.72678" r="3.80853" xlink:href="#Безымянный_градиент_918"/><radialGradient id="Безымянный_градиент_918-74" cx="4851.64445" cy="75.68173" r="3.80853" xlink:href="#Безымянный_градиент_918"/><radialGradient id="Безымянный_градиент_918-75" cx="4448.48748" cy="52.92728" r="3.80853" xlink:href="#Безымянный_градиент_918"/><radialGradient id="Безымянный_градиент_918-76" cx="3653.81253" cy="488.53493" r="3.80853" xlink:href="#Безымянный_градиент_918"/><radialGradient id="Безымянный_градиент_918-77" cx="3449.33108" cy="98.12808" r="3.80853" xlink:href="#Безымянный_градиент_918"/><radialGradient id="Безымянный_градиент_918-78" cx="4480.79776" cy="285.30125" r="11.53206" xlink:href="#Безымянный_градиент_918"/><radialGradient id="Безымянный_градиент_918-79" cx="4827.49573" cy="539.15574" r="11.53206" xlink:href="#Безымянный_градиент_918"/><radialGradient id="Безымянный_градиент_918-80" cx="3329.02028" cy="482.58135" r="11.53206" xlink:href="#Безымянный_градиент_918"/><radialGradient id="Безымянный_градиент_918-81" cx="4317.95406" cy="100.2017" r="11.53206" xlink:href="#Безымянный_градиент_918"/><radialGradient id="Безымянный_градиент_918-82" cx="3879.81158" cy="357.88785" r="11.53206" xlink:href="#Безымянный_градиент_918"/><radialGradient id="Безымянный_градиент_918-83" cx="4372.77407" cy="286.52836" r="11.53206" xlink:href="#Безымянный_градиент_918"/><radialGradient id="Безымянный_градиент_918-84" cx="4239.9703" cy="298.65316" r="11.53206" xlink:href="#Безымянный_градиент_918"/><radialGradient id="Безымянный_градиент_918-85" cx="3618.63397" cy="29.87421" r="11.53206" xlink:href="#Безымянный_градиент_918"/><radialGradient id="Безымянный_градиент_918-86" cx="3978.43723" cy="281.40434" r="11.53206" xlink:href="#Безымянный_градиент_918"/><radialGradient id="Безымянный_градиент_918-87" cx="3820.61028" cy="18.34214" r="11.53206" xlink:href="#Безымянный_градиент_918"/><radialGradient id="Безымянный_градиент_918-88" cx="3414.37417" cy="346.35579" r="7.92076" xlink:href="#Безымянный_градиент_918"/><radialGradient id="Безымянный_градиент_918-89" cx="4663.61052" cy="465.37357" r="7.92076" xlink:href="#Безымянный_градиент_918"/><radialGradient id="Безымянный_градиент_918-90" cx="4820.00952" cy="20.41577" r="7.92076" xlink:href="#Безымянный_градиент_918"/><radialGradient id="Безымянный_градиент_918-91" cx="5963.25422" cy="11.53206" r="11.53206" xlink:href="#Безымянный_градиент_918"/><radialGradient id="Безымянный_градиент_918-92" cx="5567.03324" cy="340.1619" r="3.80853" xlink:href="#Безымянный_градиент_918"/><radialGradient id="Безымянный_градиент_918-93" cx="5520.07639" cy="304.34737" r="3.80853" xlink:href="#Безымянный_градиент_918"/><radialGradient id="Безымянный_градиент_918-94" cx="5316.36517" cy="420.73291" r="3.80853" xlink:href="#Безымянный_градиент_918"/><radialGradient id="Безымянный_градиент_918-95" cx="5251.16928" cy="83.08205" r="3.80853" xlink:href="#Безымянный_градиент_918"/><radialGradient id="Безымянный_градиент_918-96" cx="5048.91406" cy="241.29099" r="3.80853" xlink:href="#Безымянный_градиент_918"/><radialGradient id="Безымянный_градиент_918-97" cx="5774.98386" cy="53.65412" r="3.80853" xlink:href="#Безымянный_градиент_918"/><radialGradient id="Безымянный_градиент_918-98" cx="5946.90332" cy="330.80141" r="3.80853" xlink:href="#Безымянный_градиент_918"/><radialGradient id="Безымянный_градиент_918-99" cx="5698.82395" cy="454.49787" r="3.80853" xlink:href="#Безымянный_градиент_918"/><radialGradient id="Безымянный_градиент_918-100" cx="5312.55664" cy="488.53493" r="3.80853" xlink:href="#Безымянный_градиент_918"/><radialGradient id="Безымянный_градиент_918-101" cx="5108.07518" cy="98.12808" r="3.80853" xlink:href="#Безымянный_градиент_918"/><radialGradient id="Безымянный_градиент_918-102" cx="4987.76439" cy="482.58135" r="11.53206" xlink:href="#Безымянный_градиент_918"/><radialGradient id="Безымянный_градиент_918-103" cx="5976.69817" cy="100.2017" r="11.53206" xlink:href="#Безымянный_градиент_918"/><radialGradient id="Безымянный_градиент_918-104" cx="5538.55568" cy="357.88785" r="11.53206" xlink:href="#Безымянный_градиент_918"/><radialGradient id="Безымянный_градиент_918-105" cx="5898.71441" cy="298.65316" r="11.53206" xlink:href="#Безымянный_градиент_918"/><radialGradient id="Безымянный_градиент_918-106" cx="5277.37808" cy="29.87421" r="11.53206" xlink:href="#Безымянный_градиент_918"/><radialGradient id="Безымянный_градиент_918-107" cx="5637.18133" cy="281.40434" r="11.53206" xlink:href="#Безымянный_градиент_918"/><radialGradient id="Безымянный_градиент_918-108" cx="5479.35439" cy="18.34214" r="11.53206" xlink:href="#Безымянный_градиент_918"/><radialGradient id="Безымянный_градиент_918-109" cx="5073.11827" cy="346.35579" r="7.92076" xlink:href="#Безымянный_градиент_918"/></defs><g class="cls-1"><g id="Layer_1" data-name="Layer 1"><rect class="cls-2" width="6000" height="553.21391"/><circle class="cls-3" cx="987.02189" cy="11.53206" r="11.53206"/><circle class="cls-4" cx="987.02189" cy="11.53206" r="2.07362"/><circle class="cls-5" cx="590.80092" cy="340.1619" r="3.80853"/><circle class="cls-6" cx="590.80092" cy="340.1619" r="0.68483"/><circle class="cls-7" cx="543.84406" cy="304.34737" r="3.80853"/><circle class="cls-6" cx="543.84406" cy="304.34737" r="0.68483"/><circle class="cls-8" cx="340.13284" cy="420.73291" r="3.80853"/><circle class="cls-6" cx="340.13284" cy="420.73291" r="0.68483"/><circle class="cls-9" cx="274.93696" cy="83.08205" r="3.80853"/><circle class="cls-6" cx="274.93696" cy="83.08205" r="0.68483"/><circle class="cls-10" cx="1025.07187" cy="457.58519" r="3.80853"/><circle class="cls-6" cx="1025.07187" cy="457.58519" r="0.68483"/><circle class="cls-11" cx="72.68174" cy="241.29099" r="3.80853"/><circle class="cls-6" cx="72.68174" cy="241.29099" r="0.68483"/><circle class="cls-12" cx="1043.8945" cy="355.81423" r="3.80853"/><circle class="cls-6" cx="1043.8945" cy="355.81423" r="0.68483"/><circle class="cls-13" cx="798.75153" cy="53.65412" r="3.80853"/><circle class="cls-6" cx="798.75153" cy="53.65412" r="0.68483"/><circle class="cls-14" cx="970.671" cy="330.80141" r="3.80853"/><circle class="cls-6" cx="970.671" cy="330.80141" r="0.68483"/><circle class="cls-15" cx="722.59163" cy="454.49787" r="3.80853"/><circle class="cls-6" cx="722.59163" cy="454.49787" r="0.68483"/><circle class="cls-16" cx="1541.77329" cy="422.72333" r="3.80853"/><circle class="cls-6" cx="1541.77329" cy="422.72333" r="0.68483"/><circle class="cls-17" cx="1127.19073" cy="300.72678" r="3.80853"/><circle class="cls-6" cx="1127.19073" cy="300.72678" r="0.68483"/><circle class="cls-18" cx="1534.15623" cy="75.68173" r="3.80853"/><circle class="cls-6" cx="1534.15623" cy="75.68173" r="0.68483"/><circle class="cls-19" cx="1130.99926" cy="52.92728" r="3.80853"/><circle class="cls-6" cx="1130.99926" cy="52.92728" r="0.68483"/><circle class="cls-20" cx="336.32431" cy="488.53493" r="3.80853"/><circle class="cls-6" cx="336.32431" cy="488.53493" r="0.68483"/><circle class="cls-21" cx="131.84286" cy="98.12808" r="3.80853"/><circle class="cls-6" cx="131.84286" cy="98.12808" r="0.68483"/><circle class="cls-22" cx="1163.30954" cy="285.30125" r="11.53206"/><circle class="cls-4" cx="1163.30954" cy="285.30125" r="2.07362"/><circle class="cls-23" cx="1510.00752" cy="539.15574" r="11.53206"/><circle class="cls-4" cx="1510.00752" cy="539.15574" r="2.07362"/><circle class="cls-24" cx="11.53206" cy="482.58135" r="11.53206"/><circle class="cls-4" cx="11.53206" cy="482.58135" r="2.07362"/><circle class="cls-25" cx="1000.46584" cy="100.2017" r="11.53206"/><circle class="cls-4" cx="1000.46584" cy="100.2017" r="2.07362"/><circle class="cls-26" cx="562.32336" cy="357.88785" r="11.53206"/><circle class="cls-4" cx="562.32336" cy="357.88785" r="2.07362"/><circle class="cls-27" cx="1055.28585" cy="286.52836" r="11.53206"/><circle class="cls-4" cx="1055.28585" cy="286.52836" r="2.07362"/><circle class="cls-28" cx="922.48209" cy="298.65316" r="11.53206"/><circle class="cls-4" cx="922.48209" cy="298.65316" r="2.07362"/><circle class="cls-29" cx="301.14575" cy="29.87421" r="11.53206"/><circle class="cls-4" cx="301.14575" cy="29.87421" r="2.07362"/><circle class="cls-30" cx="660.94901" cy="281.40434" r="11.53206"/><circle class="cls-4" cx="660.94901" cy="281.40434" r="2.07362"/><circle class="cls-31" cx="503.12207" cy="18.34214" r="11.53206"/><circle class="cls-4" cx="503.12207" cy="18.34214" r="2.07362"/><circle class="cls-32" cx="96.88595" cy="346.35579" r="7.92076"/><circle class="cls-4" cx="96.88595" cy="346.35579" r="1.42426"/><circle class="cls-33" cx="1346.1223" cy="465.37357" r="7.92076"/><circle class="cls-4" cx="1346.1223" cy="465.37357" r="1.42426"/><circle class="cls-34" cx="1502.52131" cy="20.41577" r="7.92076"/><circle class="cls-4" cx="1502.52131" cy="20.41577" r="1.42426"/><circle class="cls-35" cx="2645.766" cy="11.53206" r="11.53206"/><circle class="cls-4" cx="2645.766" cy="11.53206" r="2.07362"/><circle class="cls-36" cx="2249.54502" cy="340.1619" r="3.80853"/><circle class="cls-6" cx="2249.54502" cy="340.1619" r="0.68483"/><circle class="cls-37" cx="2202.58817" cy="304.34737" r="3.80853"/><circle class="cls-6" cx="2202.58817" cy="304.34737" r="0.68483"/><circle class="cls-38" cx="1998.87695" cy="420.73291" r="3.80853"/><circle class="cls-6" cx="1998.87695" cy="420.73291" r="0.68483"/><circle class="cls-39" cx="1933.68106" cy="83.08205" r="3.80853"/><circle class="cls-6" cx="1933.68106" cy="83.08205" r="0.68483"/><circle class="cls-40" cx="2683.81598" cy="457.58519" r="3.80853"/><circle class="cls-6" cx="2683.81598" cy="457.58519" r="0.68483"/><circle class="cls-41" cx="1731.42585" cy="241.29099" r="3.80853"/><circle class="cls-6" cx="1731.42585" cy="241.29099" r="0.68483"/><circle class="cls-42" cx="2702.63861" cy="355.81423" r="3.80853"/><circle class="cls-6" cx="2702.63861" cy="355.81423" r="0.68483"/><circle class="cls-43" cx="2457.49564" cy="53.65412" r="3.80853"/><circle class="cls-6" cx="2457.49564" cy="53.65412" r="0.68483"/><circle class="cls-44" cx="2629.41511" cy="330.80141" r="3.80853"/><circle class="cls-6" cx="2629.41511" cy="330.80141" r="0.68483"/><circle class="cls-45" cx="2381.33573" cy="454.49787" r="3.80853"/><circle class="cls-6" cx="2381.33573" cy="454.49787" r="0.68483"/><circle class="cls-46" cx="3200.5174" cy="422.72333" r="3.80853"/><circle class="cls-6" cx="3200.5174" cy="422.72333" r="0.68483"/><circle class="cls-47" cx="2785.93484" cy="300.72678" r="3.80853"/><circle class="cls-6" cx="2785.93484" cy="300.72678" r="0.68483"/><circle class="cls-48" cx="3192.90034" cy="75.68173" r="3.80853"/><circle class="cls-6" cx="3192.90034" cy="75.68173" r="0.68483"/><circle class="cls-49" cx="2789.74337" cy="52.92728" r="3.80853"/><circle class="cls-6" cx="2789.74337" cy="52.92728" r="0.68483"/><circle class="cls-50" cx="1995.06842" cy="488.53493" r="3.80853"/><circle class="cls-6" cx="1995.06842" cy="488.53493" r="0.68483"/><circle class="cls-51" cx="1790.58697" cy="98.12808" r="3.80853"/><circle class="cls-6" cx="1790.58697" cy="98.12808" r="0.68483"/><circle class="cls-52" cx="2822.05365" cy="285.30125" r="11.53206"/><circle class="cls-4" cx="2822.05365" cy="285.30125" r="2.07362"/><circle class="cls-53" cx="3168.75163" cy="539.15574" r="11.53206"/><circle class="cls-4" cx="3168.75163" cy="539.15574" r="2.07362"/><circle class="cls-54" cx="1670.27617" cy="482.58135" r="11.53206"/><circle class="cls-4" cx="1670.27617" cy="482.58135" r="2.07362"/><circle class="cls-55" cx="2659.20995" cy="100.2017" r="11.53206"/><circle class="cls-4" cx="2659.20995" cy="100.2017" r="2.07362"/><circle class="cls-56" cx="2221.06747" cy="357.88785" r="11.53206"/><circle class="cls-4" cx="2221.06747" cy="357.88785" r="2.07362"/><circle class="cls-57" cx="2714.02996" cy="286.52836" r="11.53206"/><circle class="cls-4" cx="2714.02996" cy="286.52836" r="2.07362"/><circle class="cls-58" cx="2581.2262" cy="298.65316" r="11.53206"/><circle class="cls-4" cx="2581.2262" cy="298.65316" r="2.07362"/><circle class="cls-59" cx="1959.88986" cy="29.87421" r="11.53206"/><circle class="cls-4" cx="1959.88986" cy="29.87421" r="2.07362"/><circle class="cls-60" cx="2319.69312" cy="281.40434" r="11.53206"/><circle class="cls-4" cx="2319.69312" cy="281.40434" r="2.07362"/><circle class="cls-61" cx="2161.86618" cy="18.34214" r="11.53206"/><circle class="cls-4" cx="2161.86618" cy="18.34214" r="2.07362"/><circle class="cls-62" cx="1755.63006" cy="346.35579" r="7.92076"/><circle class="cls-4" cx="1755.63006" cy="346.35579" r="1.42426"/><circle class="cls-63" cx="3004.86641" cy="465.37357" r="7.92076"/><circle class="cls-4" cx="3004.86641" cy="465.37357" r="1.42426"/><circle class="cls-64" cx="3161.26541" cy="20.41577" r="7.92076"/><circle class="cls-4" cx="3161.26541" cy="20.41577" r="1.42426"/><circle class="cls-65" cx="4304.51011" cy="11.53206" r="11.53206"/><circle class="cls-4" cx="4304.51011" cy="11.53206" r="2.07362"/><circle class="cls-66" cx="3908.28913" cy="340.1619" r="3.80853"/><circle class="cls-6" cx="3908.28913" cy="340.1619" r="0.68483"/><circle class="cls-67" cx="3861.33228" cy="304.34737" r="3.80853"/><circle class="cls-6" cx="3861.33228" cy="304.34737" r="0.68483"/><circle class="cls-68" cx="3657.62106" cy="420.73291" r="3.80853"/><circle class="cls-6" cx="3657.62106" cy="420.73291" r="0.68483"/><circle class="cls-69" cx="3592.42517" cy="83.08205" r="3.80853"/><circle class="cls-6" cx="3592.42517" cy="83.08205" r="0.68483"/><circle class="cls-70" cx="4342.56009" cy="457.58519" r="3.80853"/><circle class="cls-6" cx="4342.56009" cy="457.58519" r="0.68483"/><circle class="cls-71" cx="3390.16996" cy="241.29099" r="3.80853"/><circle class="cls-6" cx="3390.16996" cy="241.29099" r="0.68483"/><circle class="cls-72" cx="4361.38272" cy="355.81423" r="3.80853"/><circle class="cls-6" cx="4361.38272" cy="355.81423" r="0.68483"/><circle class="cls-73" cx="4116.23975" cy="53.65412" r="3.80853"/><circle class="cls-6" cx="4116.23975" cy="53.65412" r="0.68483"/><circle class="cls-74" cx="4288.15921" cy="330.80141" r="3.80853"/><circle class="cls-6" cx="4288.15921" cy="330.80141" r="0.68483"/><circle class="cls-75" cx="4040.07984" cy="454.49787" r="3.80853"/><circle class="cls-6" cx="4040.07984" cy="454.49787" r="0.68483"/><circle class="cls-76" cx="4859.2615" cy="422.72333" r="3.80853"/><circle class="cls-6" cx="4859.2615" cy="422.72333" r="0.68483"/><circle class="cls-77" cx="4444.67895" cy="300.72678" r="3.80853"/><circle class="cls-6" cx="4444.67895" cy="300.72678" r="0.68483"/><circle class="cls-78" cx="4851.64445" cy="75.68173" r="3.80853"/><circle class="cls-6" cx="4851.64445" cy="75.68173" r="0.68483"/><circle class="cls-79" cx="4448.48748" cy="52.92728" r="3.80853"/><circle class="cls-6" cx="4448.48748" cy="52.92728" r="0.68483"/><circle class="cls-80" cx="3653.81253" cy="488.53493" r="3.80853"/><circle class="cls-6" cx="3653.81253" cy="488.53493" r="0.68483"/><circle class="cls-81" cx="3449.33108" cy="98.12808" r="3.80853"/><circle class="cls-6" cx="3449.33108" cy="98.12808" r="0.68483"/><circle class="cls-82" cx="4480.79776" cy="285.30125" r="11.53206"/><circle class="cls-4" cx="4480.79776" cy="285.30125" r="2.07362"/><circle class="cls-83" cx="4827.49573" cy="539.15574" r="11.53206"/><circle class="cls-4" cx="4827.49573" cy="539.15574" r="2.07362"/><circle class="cls-84" cx="3329.02028" cy="482.58135" r="11.53206"/><circle class="cls-4" cx="3329.02028" cy="482.58135" r="2.07362"/><circle class="cls-85" cx="4317.95406" cy="100.2017" r="11.53206"/><circle class="cls-4" cx="4317.95406" cy="100.2017" r="2.07362"/><circle class="cls-86" cx="3879.81158" cy="357.88785" r="11.53206"/><circle class="cls-4" cx="3879.81158" cy="357.88785" r="2.07362"/><circle class="cls-87" cx="4372.77407" cy="286.52836" r="11.53206"/><circle class="cls-4" cx="4372.77407" cy="286.52836" r="2.07362"/><circle class="cls-88" cx="4239.9703" cy="298.65316" r="11.53206"/><circle class="cls-4" cx="4239.9703" cy="298.65316" r="2.07362"/><circle class="cls-89" cx="3618.63397" cy="29.87421" r="11.53206"/><circle class="cls-4" cx="3618.63397" cy="29.87421" r="2.07362"/><circle class="cls-90" cx="3978.43723" cy="281.40434" r="11.53206"/><circle class="cls-4" cx="3978.43723" cy="281.40434" r="2.07362"/><circle class="cls-91" cx="3820.61028" cy="18.34214" r="11.53206"/><circle class="cls-4" cx="3820.61028" cy="18.34214" r="2.07362"/><circle class="cls-92" cx="3414.37417" cy="346.35579" r="7.92076"/><circle class="cls-4" cx="3414.37417" cy="346.35579" r="1.42426"/><circle class="cls-93" cx="4663.61052" cy="465.37357" r="7.92076"/><circle class="cls-4" cx="4663.61052" cy="465.37357" r="1.42426"/><circle class="cls-94" cx="4820.00952" cy="20.41577" r="7.92076"/><circle class="cls-4" cx="4820.00952" cy="20.41577" r="1.42426"/><circle class="cls-95" cx="5963.25422" cy="11.53206" r="11.53206"/><circle class="cls-4" cx="5963.25422" cy="11.53206" r="2.07362"/><circle class="cls-96" cx="5567.03324" cy="340.1619" r="3.80853"/><circle class="cls-6" cx="5567.03324" cy="340.1619" r="0.68483"/><circle class="cls-97" cx="5520.07639" cy="304.34737" r="3.80853"/><circle class="cls-6" cx="5520.07639" cy="304.34737" r="0.68483"/><circle class="cls-98" cx="5316.36517" cy="420.73291" r="3.80853"/><circle class="cls-6" cx="5316.36517" cy="420.73291" r="0.68483"/><circle class="cls-99" cx="5251.16928" cy="83.08205" r="3.80853"/><circle class="cls-6" cx="5251.16928" cy="83.08205" r="0.68483"/><circle class="cls-100" cx="5048.91406" cy="241.29099" r="3.80853"/><circle class="cls-6" cx="5048.91406" cy="241.29099" r="0.68483"/><circle class="cls-101" cx="5774.98386" cy="53.65412" r="3.80853"/><circle class="cls-6" cx="5774.98386" cy="53.65412" r="0.68483"/><circle class="cls-102" cx="5946.90332" cy="330.80141" r="3.80853"/><circle class="cls-6" cx="5946.90332" cy="330.80141" r="0.68483"/><circle class="cls-103" cx="5698.82395" cy="454.49787" r="3.80853"/><circle class="cls-6" cx="5698.82395" cy="454.49787" r="0.68483"/><circle class="cls-104" cx="5312.55664" cy="488.53493" r="3.80853"/><circle class="cls-6" cx="5312.55664" cy="488.53493" r="0.68483"/><circle class="cls-105" cx="5108.07518" cy="98.12808" r="3.80853"/><circle class="cls-6" cx="5108.07518" cy="98.12808" r="0.68483"/><circle class="cls-106" cx="4987.76439" cy="482.58135" r="11.53206"/><circle class="cls-4" cx="4987.76439" cy="482.58135" r="2.07362"/><circle class="cls-107" cx="5976.69817" cy="100.2017" r="11.53206"/><circle class="cls-4" cx="5976.69817" cy="100.2017" r="2.07362"/><circle class="cls-108" cx="5538.55568" cy="357.88785" r="11.53206"/><circle class="cls-4" cx="5538.55568" cy="357.88785" r="2.07362"/><circle class="cls-109" cx="5898.71441" cy="298.65316" r="11.53206"/><circle class="cls-4" cx="5898.71441" cy="298.65316" r="2.07362"/><circle class="cls-110" cx="5277.37808" cy="29.87421" r="11.53206"/><circle class="cls-4" cx="5277.37808" cy="29.87421" r="2.07362"/><circle class="cls-111" cx="5637.18133" cy="281.40434" r="11.53206"/><circle class="cls-4" cx="5637.18133" cy="281.40434" r="2.07362"/><circle class="cls-112" cx="5479.35439" cy="18.34214" r="11.53206"/><circle class="cls-4" cx="5479.35439" cy="18.34214" r="2.07362"/><circle class="cls-113" cx="5073.11827" cy="346.35579" r="7.92076"/><circle class="cls-4" cx="5073.11827" cy="346.35579" r="1.42426"/></g></g></svg>